<svg
  xmlns="http://www.w3.org/2000/svg"
  viewBox="0 0 256 256"
  width="256"
  height="256"
  fill="none"
  stroke-width="14"
  stroke-linecap="round"
  stroke-linejoin="round"
  role="img"
  aria-labelledby="title desc"
>
  <title id="title">CodeFrame Icon</title>

  <defs>
    <linearGradient id="frameGradient" x1="0" y1="0" x2="1" y2="1">
      <stop offset="0%" stop-color="#FF6B6B"/>
      <stop offset="50%" stop-color="#FFD93D"/>
      <stop offset="100%" stop-color="#6BCB77"/>
    </linearGradient>

    <linearGradient id="codeGradient" x1="0" y1="0" x2="1" y2="1">
      <stop offset="0%" stop-color="#4D96FF"/>
      <stop offset="100%" stop-color="#843BFF"/>
    </linearGradient>
  </defs>

  <!-- Frame corners -->
  <path d="M80 32H40a8 8 0 0 0-8 8v40" stroke="url(#frameGradient)" />
  <path d="M176 32h40a8 8 0 0 1 8 8v40" stroke="url(#frameGradient)" />
  <path d="M32 176v40a8 8 0 0 0 8 8h40" stroke="url(#frameGradient)" />
  <path d="M224 176v40a8 8 0 0 1-8 8h-40" stroke="url(#frameGradient)" />

  <!-- Centered code glyph </> -->
  <path d="M96 96L68 128l28 32" stroke="url(#codeGradient)" />
  <path d="M160 160l28-32-28-32" stroke="url(#codeGradient)" />
  <path d="M148 72l-40 112" stroke="url(#codeGradient)" />
</svg>
